<svg width="18" height="16" viewBox="0 0 18 16" fill="none" xmlns="http://www.w3.org/2000/svg">
<path d="M4.04144 13.6185C5.23163 14.4754 6.6613 14.9258 8.11933 14.9111C8.38398 14.9085 8.57582 14.6684 8.53992 14.4062C8.50694 14.1653 8.29246 13.9933 8.04932 13.993C6.77194 13.9913 5.5247 13.5775 4.4962 12.8071C3.352 11.95 2.55528 10.709 2.25226 9.31188C1.94924 7.91475 2.16025 6.45521 2.84656 5.20111C3.53287 3.94701 4.64844 2.98249 5.98853 2.48456C7.32863 1.98664 8.80335 1.98871 10.142 2.4904C11.4807 2.99209 12.5936 3.95974 13.2764 5.21576C13.9592 6.47178 14.1661 7.93191 13.8591 9.32818L12.2112 7.68023C12.1255 7.59451 12.0092 7.54635 11.888 7.54635C11.7668 7.54635 11.6505 7.59451 11.5648 7.68023C11.4791 7.76595 11.4309 7.88221 11.4309 8.00343C11.4309 8.12466 11.4791 8.24092 11.5648 8.32664L13.8739 10.6358C13.9596 10.7215 14.0759 10.7697 14.1971 10.7697C14.3184 10.7697 14.4346 10.7215 14.5203 10.6358L16.8295 8.32665C16.9152 8.24093 16.9634 8.12466 16.9634 8.00344C16.9634 7.88221 16.9152 7.76595 16.8295 7.68023C16.7438 7.59451 16.6275 7.54635 16.5063 7.54635C16.385 7.54635 16.2688 7.59451 16.1831 7.68023L14.8427 9.02062C15.0731 7.40755 14.722 5.7651 13.8522 4.38725C12.9823 3.00941 11.6505 1.98611 10.095 1.50051C8.53961 1.01492 6.86215 1.09873 5.36288 1.73694C3.86361 2.37516 2.64041 3.52611 1.91222 4.9838C1.18402 6.44149 0.998371 8.11076 1.38849 9.69282C1.77861 11.2749 2.71904 12.6665 4.04144 13.6185Z" stroke="#D32020"/>
</svg>
