<svg width="333" height="60" viewBox="0 0 333 60" fill="none" xmlns="http://www.w3.org/2000/svg">
<rect x="10.6701" y="6.67008" width="315.66" height="46.6598" rx="23.3299" fill="#050505" fill-opacity="0.2" stroke="url(#paint0_linear_1240_6389)" stroke-width="1.34016"/>
<g filter="url(#filter0_f_1240_6389)">
<rect x="10.6701" y="6.67008" width="315.66" height="46.6598" rx="23.3299" stroke="url(#paint1_linear_1240_6389)" stroke-width="1.34016"/>
</g>
<rect x="224" y="10" width="99" height="40" rx="20" fill="url(#paint2_linear_1240_6389)"/>
<g opacity="0.5">
<path d="M45.9389 34.0001H44.5535L47.6664 25.3501H49.1742L52.2871 34.0001H50.9017L48.4562 26.9213H48.3886L45.9389 34.0001ZM46.1712 30.6127H50.6652V31.7109H46.1712V30.6127Z" fill="white"/>
<path d="M56.5825 34.0001V27.5126H57.8032V28.5431H57.8707C57.989 28.194 58.1974 27.9194 58.4958 27.7195C58.7971 27.5168 59.1378 27.4154 59.518 27.4154C59.5968 27.4154 59.6897 27.4182 59.7967 27.4239C59.9065 27.4295 59.9924 27.4365 60.0544 27.445V28.653C60.0037 28.6389 59.9136 28.6234 59.784 28.6065C59.6545 28.5868 59.525 28.5769 59.3955 28.5769C59.097 28.5769 58.8309 28.6403 58.5972 28.767C58.3663 28.8909 58.1833 29.0641 58.0481 29.2865C57.913 29.5061 57.8454 29.7567 57.8454 30.0383V34.0001H56.5825Z" fill="white"/>
<path d="M63.6476 34.131C63.0394 34.131 62.5087 33.9917 62.0553 33.7129C61.602 33.4341 61.25 33.0442 60.9994 32.5429C60.7488 32.0417 60.6235 31.4561 60.6235 30.7859C60.6235 30.1129 60.7488 29.5244 60.9994 29.0204C61.25 28.5164 61.602 28.125 62.0553 27.8462C62.5087 27.5675 63.0394 27.4281 63.6476 27.4281C64.2559 27.4281 64.7866 27.5675 65.24 27.8462C65.6933 28.125 66.0453 28.5164 66.2959 29.0204C66.5465 29.5244 66.6718 30.1129 66.6718 30.7859C66.6718 31.4561 66.5465 32.0417 66.2959 32.5429C66.0453 33.0442 65.6933 33.4341 65.24 33.7129C64.7866 33.9917 64.2559 34.131 63.6476 34.131ZM63.6519 33.0709C64.0461 33.0709 64.3727 32.9667 64.6318 32.7584C64.8908 32.55 65.0823 32.2726 65.2062 31.9263C65.3329 31.58 65.3962 31.1984 65.3962 30.7817C65.3962 30.3678 65.3329 29.9876 65.2062 29.6413C65.0823 29.2921 64.8908 29.012 64.6318 28.8008C64.3727 28.5896 64.0461 28.484 63.6519 28.484C63.2548 28.484 62.9254 28.5896 62.6635 28.8008C62.4045 29.012 62.2116 29.2921 62.0849 29.6413C61.961 29.9876 61.899 30.3678 61.899 30.7817C61.899 31.1984 61.961 31.58 62.0849 31.9263C62.2116 32.2726 62.4045 32.55 62.6635 32.7584C62.9254 32.9667 63.2548 33.0709 63.6519 33.0709Z" fill="white"/>
<path d="M68.1828 34.0001V25.3501H69.4457V28.5643H69.5217C69.5949 28.4291 69.7005 28.2728 69.8385 28.0954C69.9764 27.918 70.1679 27.7632 70.4129 27.6308C70.6579 27.4957 70.9817 27.4281 71.3843 27.4281C71.9081 27.4281 72.3755 27.5604 72.7866 27.8251C73.1977 28.0898 73.5201 28.4713 73.7538 28.9697C73.9903 29.4681 74.1086 30.0679 74.1086 30.769C74.1086 31.4701 73.9917 32.0713 73.758 32.5725C73.5243 33.0709 73.2033 33.4553 72.795 33.7256C72.3868 33.9931 71.9207 34.1268 71.397 34.1268C71.0028 34.1268 70.6804 34.0606 70.4298 33.9283C70.182 33.796 69.9877 33.6411 69.8469 33.4637C69.7061 33.2863 69.5977 33.1286 69.5217 32.9907H69.4161V34.0001H68.1828ZM69.4203 30.7563C69.4203 31.2125 69.4865 31.6123 69.6188 31.9559C69.7512 32.2994 69.9427 32.5683 70.1933 32.7626C70.4439 32.9541 70.7508 33.0498 71.114 33.0498C71.4913 33.0498 71.8067 32.9498 72.0601 32.7499C72.3135 32.5472 72.505 32.2726 72.6345 31.9263C72.7669 31.58 72.8331 31.19 72.8331 30.7563C72.8331 30.3283 72.7683 29.944 72.6388 29.6033C72.5121 29.2626 72.3206 28.9937 72.0643 28.7966C71.8109 28.5995 71.4942 28.5009 71.114 28.5009C70.748 28.5009 70.4382 28.5952 70.1848 28.7839C69.9342 28.9725 69.7441 29.2358 69.6146 29.5737C69.4851 29.9116 69.4203 30.3058 69.4203 30.7563Z" fill="white"/>
<path d="M78.2594 34.131C77.6512 34.131 77.1204 33.9917 76.6671 33.7129C76.2137 33.4341 75.8618 33.0442 75.6112 32.5429C75.3606 32.0417 75.2353 31.4561 75.2353 30.7859C75.2353 30.1129 75.3606 29.5244 75.6112 29.0204C75.8618 28.5164 76.2137 28.125 76.6671 27.8462C77.1204 27.5675 77.6512 27.4281 78.2594 27.4281C78.8676 27.4281 79.3984 27.5675 79.8517 27.8462C80.3051 28.125 80.657 28.5164 80.9076 29.0204C81.1582 29.5244 81.2835 30.1129 81.2835 30.7859C81.2835 31.4561 81.1582 32.0417 80.9076 32.5429C80.657 33.0442 80.3051 33.4341 79.8517 33.7129C79.3984 33.9917 78.8676 34.131 78.2594 34.131ZM78.2636 33.0709C78.6578 33.0709 78.9845 32.9667 79.2435 32.7584C79.5026 32.55 79.694 32.2726 79.8179 31.9263C79.9446 31.58 80.008 31.1984 80.008 30.7817C80.008 30.3678 79.9446 29.9876 79.8179 29.6413C79.694 29.2921 79.5026 29.012 79.2435 28.8008C78.9845 28.5896 78.6578 28.484 78.2636 28.484C77.8666 28.484 77.5372 28.5896 77.2753 28.8008C77.0162 29.012 76.8234 29.2921 76.6966 29.6413C76.5727 29.9876 76.5108 30.3678 76.5108 30.7817C76.5108 31.1984 76.5727 31.58 76.6966 31.9263C76.8234 32.2726 77.0162 32.55 77.2753 32.7584C77.5372 32.9667 77.8666 33.0709 78.2636 33.0709Z" fill="white"/>
<path d="M85.7216 27.5126V28.5262H82.1779V27.5126H85.7216ZM83.1282 25.9583H84.3911V32.0952C84.3911 32.3402 84.4277 32.5246 84.5009 32.6485C84.5741 32.7696 84.6685 32.8527 84.7839 32.8977C84.9022 32.94 85.0303 32.9611 85.1683 32.9611C85.2696 32.9611 85.3583 32.9541 85.4343 32.94C85.5104 32.9259 85.5695 32.9146 85.6117 32.9062L85.8398 33.9494C85.7666 33.9776 85.6624 34.0057 85.5273 34.0339C85.3921 34.0649 85.2232 34.0818 85.0204 34.0846C84.6882 34.0902 84.3784 34.0311 84.0912 33.9072C83.804 33.7833 83.5717 33.5918 83.3943 33.3328C83.2169 33.0737 83.1282 32.7485 83.1282 32.3571V25.9583Z" fill="white"/>
<path d="M90.2662 34.0001V27.5126H91.4869V28.5431H91.5544C91.6727 28.194 91.8811 27.9194 92.1795 27.7195C92.4808 27.5168 92.8215 27.4154 93.2017 27.4154C93.2805 27.4154 93.3734 27.4182 93.4804 27.4239C93.5902 27.4295 93.6761 27.4365 93.7381 27.445V28.653C93.6874 28.6389 93.5973 28.6234 93.4677 28.6065C93.3382 28.5868 93.2087 28.5769 93.0792 28.5769C92.7807 28.5769 92.5146 28.6403 92.2809 28.767C92.05 28.8909 91.867 29.0641 91.7318 29.2865C91.5967 29.5061 91.5291 29.7567 91.5291 30.0383V34.0001H90.2662Z" fill="white"/>
<path d="M98.9406 31.3096V27.5126H100.208V34.0001H98.9659V32.8766H98.8983C98.7491 33.223 98.5097 33.5116 98.1803 33.7425C97.8537 33.9705 97.4468 34.0846 96.9597 34.0846C96.5429 34.0846 96.1741 33.9931 95.8531 33.81C95.5349 33.6242 95.2843 33.3497 95.1012 32.9864C94.921 32.6232 94.8309 32.1741 94.8309 31.6391V27.5126H96.0938V31.487C96.0938 31.9291 96.2163 32.2811 96.4613 32.5429C96.7062 32.8048 97.0244 32.9357 97.4158 32.9357C97.6523 32.9357 97.8875 32.8766 98.1212 32.7584C98.3577 32.6401 98.5534 32.4613 98.7083 32.2219C98.8659 31.9826 98.9434 31.6785 98.9406 31.3096Z" fill="white"/>
<path d="M103.167 30.1481V34.0001H101.905V27.5126H103.117V28.5685H103.197C103.346 28.225 103.58 27.949 103.898 27.7406C104.219 27.5323 104.623 27.4281 105.11 27.4281C105.552 27.4281 105.94 27.521 106.272 27.7069C106.604 27.8899 106.862 28.163 107.045 28.5262C107.228 28.8895 107.319 29.3386 107.319 29.8736V34.0001H106.056V30.0256C106.056 29.5554 105.934 29.188 105.689 28.9233C105.444 28.6558 105.107 28.522 104.679 28.522C104.387 28.522 104.126 28.5854 103.898 28.7121C103.673 28.8388 103.494 29.0246 103.362 29.2696C103.232 29.5118 103.167 29.8046 103.167 30.1481Z" fill="white"/>
<path d="M110.276 30.1481V34.0001H109.013V27.5126H110.225V28.5685H110.305C110.455 28.225 110.688 27.949 111.007 27.7406C111.327 27.5323 111.732 27.4281 112.219 27.4281C112.661 27.4281 113.048 27.521 113.38 27.7069C113.712 27.8899 113.97 28.163 114.153 28.5262C114.336 28.8895 114.428 29.3386 114.428 29.8736V34.0001H113.165V30.0256C113.165 29.5554 113.042 29.188 112.797 28.9233C112.552 28.6558 112.216 28.522 111.788 28.522C111.495 28.522 111.235 28.5854 111.007 28.7121C110.781 28.8388 110.602 29.0246 110.47 29.2696C110.341 29.5118 110.276 29.8046 110.276 30.1481Z" fill="white"/>
<path d="M116.121 34.0001V27.5126H117.384V34.0001H116.121ZM116.759 26.5116C116.54 26.5116 116.351 26.4383 116.193 26.2919C116.038 26.1427 115.961 25.9653 115.961 25.7597C115.961 25.5514 116.038 25.374 116.193 25.2276C116.351 25.0783 116.54 25.0037 116.759 25.0037C116.979 25.0037 117.166 25.0783 117.321 25.2276C117.479 25.374 117.557 25.5514 117.557 25.7597C117.557 25.9653 117.479 26.1427 117.321 26.2919C117.166 26.4383 116.979 26.5116 116.759 26.5116Z" fill="white"/>
<path d="M120.346 30.1481V34.0001H119.083V27.5126H120.295V28.5685H120.376C120.525 28.225 120.759 27.949 121.077 27.7406C121.398 27.5323 121.802 27.4281 122.289 27.4281C122.731 27.4281 123.118 27.521 123.45 27.7069C123.783 27.8899 124.04 28.163 124.223 28.5262C124.406 28.8895 124.498 29.3386 124.498 29.8736V34.0001H123.235V30.0256C123.235 29.5554 123.113 29.188 122.868 28.9233C122.623 28.6558 122.286 28.522 121.858 28.522C121.565 28.522 121.305 28.5854 121.077 28.7121C120.852 28.8388 120.673 29.0246 120.54 29.2696C120.411 29.5118 120.346 29.8046 120.346 30.1481Z" fill="white"/>
<path d="M128.912 36.5681C128.396 36.5681 127.953 36.5005 127.581 36.3654C127.212 36.2302 126.911 36.0514 126.677 35.829C126.444 35.6065 126.269 35.3629 126.154 35.0983L127.239 34.6506C127.315 34.7744 127.416 34.9054 127.543 35.0434C127.673 35.1841 127.847 35.3038 128.067 35.4024C128.289 35.5009 128.575 35.5502 128.924 35.5502C129.403 35.5502 129.799 35.4333 130.111 35.1996C130.424 34.9687 130.58 34.5999 130.58 34.093V32.8175H130.5C130.424 32.9555 130.314 33.1089 130.17 33.2779C130.03 33.4468 129.835 33.5932 129.587 33.7171C129.34 33.841 129.017 33.903 128.62 33.903C128.108 33.903 127.646 33.7833 127.235 33.544C126.827 33.3018 126.503 32.9456 126.263 32.4754C126.027 32.0023 125.909 31.4209 125.909 30.731C125.909 30.0411 126.025 29.4498 126.259 28.9571C126.496 28.4643 126.82 28.087 127.231 27.8251C127.642 27.5604 128.108 27.4281 128.629 27.4281C129.031 27.4281 129.357 27.4957 129.604 27.6308C129.852 27.7632 130.045 27.918 130.183 28.0954C130.324 28.2728 130.432 28.4291 130.508 28.5643H130.601V27.5126H131.839V34.1437C131.839 34.7012 131.709 35.1588 131.45 35.5164C131.191 35.874 130.84 36.1387 130.398 36.3105C129.959 36.4822 129.464 36.5681 128.912 36.5681ZM128.899 32.8555C129.262 32.8555 129.569 32.771 129.82 32.6021C130.073 32.4303 130.265 32.1853 130.394 31.8672C130.527 31.5462 130.593 31.1618 130.593 30.7141C130.593 30.2777 130.528 29.8933 130.398 29.561C130.269 29.2288 130.079 28.9697 129.828 28.7839C129.578 28.5952 129.268 28.5009 128.899 28.5009C128.519 28.5009 128.202 28.5995 127.949 28.7966C127.695 28.9908 127.504 29.2555 127.374 29.5906C127.248 29.9257 127.184 30.3002 127.184 30.7141C127.184 31.1393 127.249 31.5124 127.378 31.8334C127.508 32.1544 127.699 32.405 127.953 32.5852C128.209 32.7654 128.524 32.8555 128.899 32.8555Z" fill="white"/>
<path d="M136.68 34.0001V27.5126H137.943V34.0001H136.68ZM137.318 26.5116C137.098 26.5116 136.91 26.4383 136.752 26.2919C136.597 26.1427 136.52 25.9653 136.52 25.7597C136.52 25.5514 136.597 25.374 136.752 25.2276C136.91 25.0783 137.098 25.0037 137.318 25.0037C137.537 25.0037 137.725 25.0783 137.88 25.2276C138.037 25.374 138.116 25.5514 138.116 25.7597C138.116 25.9653 138.037 26.1427 137.88 26.2919C137.725 26.4383 137.537 26.5116 137.318 26.5116Z" fill="white"/>
<path d="M140.905 30.1481V34.0001H139.642V27.5126H140.854V28.5685H140.934C141.084 28.225 141.317 27.949 141.635 27.7406C141.956 27.5323 142.361 27.4281 142.848 27.4281C143.29 27.4281 143.677 27.521 144.009 27.7069C144.341 27.8899 144.599 28.163 144.782 28.5262C144.965 28.8895 145.057 29.3386 145.057 29.8736V34.0001H143.794V30.0256C143.794 29.5554 143.671 29.188 143.426 28.9233C143.181 28.6558 142.845 28.522 142.417 28.522C142.124 28.522 141.864 28.5854 141.635 28.7121C141.41 28.8388 141.231 29.0246 141.099 29.2696C140.97 29.5118 140.905 29.8046 140.905 30.1481Z" fill="white"/>
<path d="M152.926 27.5126V28.5262H149.383V27.5126H152.926ZM150.333 25.9583H151.596V32.0952C151.596 32.3402 151.632 32.5246 151.706 32.6485C151.779 32.7696 151.873 32.8527 151.989 32.8977C152.107 32.94 152.235 32.9611 152.373 32.9611C152.474 32.9611 152.563 32.9541 152.639 32.94C152.715 32.9259 152.774 32.9146 152.817 32.9062L153.045 33.9494C152.971 33.9776 152.867 34.0057 152.732 34.0339C152.597 34.0649 152.428 34.0818 152.225 34.0846C151.893 34.0902 151.583 34.0311 151.296 33.9072C151.009 33.7833 150.776 33.5918 150.599 33.3328C150.422 33.0737 150.333 32.7485 150.333 32.3571V25.9583Z" fill="white"/>
<path d="M155.726 30.1481V34.0001H154.463V25.3501H155.709V28.5685H155.789C155.941 28.2193 156.173 27.942 156.486 27.7364C156.798 27.5309 157.207 27.4281 157.711 27.4281C158.156 27.4281 158.544 27.5196 158.876 27.7026C159.212 27.8857 159.471 28.1588 159.654 28.522C159.839 28.8824 159.932 29.333 159.932 29.8736V34.0001H158.669V30.0256C158.669 29.5498 158.547 29.1809 158.302 28.919C158.057 28.6544 157.716 28.522 157.28 28.522C156.981 28.522 156.714 28.5854 156.477 28.7121C156.244 28.8388 156.059 29.0246 155.924 29.2696C155.792 29.5118 155.726 29.8046 155.726 30.1481Z" fill="white"/>
<path d="M164.414 34.131C163.774 34.131 163.224 33.9945 162.762 33.7213C162.303 33.4454 161.948 33.0582 161.698 32.5598C161.45 32.0586 161.326 31.4715 161.326 30.7986C161.326 30.1341 161.45 29.5484 161.698 29.0415C161.948 28.5347 162.298 28.1391 162.745 27.8547C163.196 27.5703 163.722 27.4281 164.325 27.4281C164.691 27.4281 165.046 27.4886 165.389 27.6097C165.733 27.7308 166.041 27.9209 166.314 28.1799C166.587 28.439 166.803 28.7754 166.961 29.1894C167.118 29.6005 167.197 30.1003 167.197 30.6888V31.1365H162.04V30.1904H165.96C165.96 29.8581 165.892 29.5639 165.757 29.3076C165.622 29.0486 165.432 28.8444 165.187 28.6952C164.944 28.546 164.66 28.4713 164.333 28.4713C163.979 28.4713 163.669 28.5586 163.404 28.7332C163.142 28.905 162.94 29.1302 162.796 29.409C162.655 29.6849 162.585 29.9848 162.585 30.3086V31.0478C162.585 31.4814 162.661 31.8503 162.813 32.1544C162.968 32.4585 163.183 32.6908 163.459 32.8513C163.735 33.009 164.057 33.0878 164.426 33.0878C164.666 33.0878 164.884 33.054 165.081 32.9864C165.278 32.916 165.448 32.8119 165.592 32.6739C165.736 32.5359 165.845 32.3656 165.921 32.1628L167.117 32.3782C167.021 32.7302 166.849 33.0385 166.602 33.3032C166.357 33.5651 166.048 33.7692 165.677 33.9156C165.308 34.0592 164.887 34.131 164.414 34.131Z" fill="white"/>
<path d="M174.833 27.5126V28.5262H171.167V27.5126H174.833ZM172.173 34.0001V26.7608C172.173 26.3553 172.261 26.0188 172.439 25.7513C172.616 25.481 172.851 25.2797 173.144 25.1473C173.437 25.0122 173.755 24.9446 174.098 24.9446C174.352 24.9446 174.569 24.9657 174.749 25.0079C174.929 25.0474 175.063 25.084 175.15 25.1178L174.855 26.1399C174.795 26.123 174.719 26.1033 174.626 26.0807C174.534 26.0554 174.421 26.0427 174.289 26.0427C173.982 26.0427 173.762 26.1188 173.63 26.2708C173.5 26.4229 173.435 26.6425 173.435 26.9297V34.0001H172.173Z" fill="white"/>
<path d="M176.136 34.0001V27.5126H177.399V34.0001H176.136ZM176.774 26.5116C176.555 26.5116 176.366 26.4383 176.208 26.2919C176.053 26.1427 175.976 25.9653 175.976 25.7597C175.976 25.5514 176.053 25.374 176.208 25.2276C176.366 25.0783 176.555 25.0037 176.774 25.0037C176.994 25.0037 177.181 25.0783 177.336 25.2276C177.494 25.374 177.572 25.5514 177.572 25.7597C177.572 25.9653 177.494 26.1427 177.336 26.2919C177.181 26.4383 176.994 26.5116 176.774 26.5116Z" fill="white"/>
<path d="M181.894 34.131C181.255 34.131 180.705 33.9945 180.243 33.7213C179.784 33.4454 179.429 33.0582 179.178 32.5598C178.931 32.0586 178.807 31.4715 178.807 30.7986C178.807 30.1341 178.931 29.5484 179.178 29.0415C179.429 28.5347 179.778 28.1391 180.226 27.8547C180.676 27.5703 181.203 27.4281 181.806 27.4281C182.172 27.4281 182.526 27.4886 182.87 27.6097C183.213 27.7308 183.522 27.9209 183.795 28.1799C184.068 28.439 184.283 28.7754 184.441 29.1894C184.599 29.6005 184.678 30.1003 184.678 30.6888V31.1365H179.521V30.1904H183.44C183.44 29.8581 183.373 29.5639 183.237 29.3076C183.102 29.0486 182.912 28.8444 182.667 28.6952C182.425 28.546 182.141 28.4713 181.814 28.4713C181.459 28.4713 181.15 28.5586 180.885 28.7332C180.623 28.905 180.42 29.1302 180.277 29.409C180.136 29.6849 180.065 29.9848 180.065 30.3086V31.0478C180.065 31.4814 180.141 31.8503 180.294 32.1544C180.448 32.4585 180.664 32.6908 180.94 32.8513C181.216 33.009 181.538 33.0878 181.907 33.0878C182.146 33.0878 182.365 33.054 182.562 32.9864C182.759 32.916 182.929 32.8119 183.073 32.6739C183.216 32.5359 183.326 32.3656 183.402 32.1628L184.597 32.3782C184.502 32.7302 184.33 33.0385 184.082 33.3032C183.837 33.5651 183.529 33.7692 183.157 33.9156C182.788 34.0592 182.367 34.131 181.894 34.131Z" fill="white"/>
<path d="M187.342 25.3501V34.0001H186.079V25.3501H187.342Z" fill="white"/>
<path d="M191.469 34.1268C190.946 34.1268 190.478 33.9931 190.067 33.7256C189.659 33.4553 189.338 33.0709 189.104 32.5725C188.873 32.0713 188.758 31.4701 188.758 30.769C188.758 30.0679 188.875 29.4681 189.108 28.9697C189.345 28.4713 189.669 28.0898 190.08 27.8251C190.491 27.5604 190.957 27.4281 191.478 27.4281C191.88 27.4281 192.204 27.4957 192.449 27.6308C192.697 27.7632 192.888 27.918 193.024 28.0954C193.162 28.2728 193.269 28.4291 193.345 28.5643H193.421V25.3501H194.684V34.0001H193.45V32.9907H193.345C193.269 33.1286 193.159 33.2863 193.015 33.4637C192.874 33.6411 192.68 33.796 192.432 33.9283C192.185 34.0606 191.864 34.1268 191.469 34.1268ZM191.748 33.0498C192.111 33.0498 192.418 32.9541 192.669 32.7626C192.922 32.5683 193.114 32.2994 193.243 31.9559C193.376 31.6123 193.442 31.2125 193.442 30.7563C193.442 30.3058 193.377 29.9116 193.248 29.5737C193.118 29.2358 192.928 28.9725 192.677 28.7839C192.427 28.5952 192.117 28.5009 191.748 28.5009C191.368 28.5009 191.051 28.5995 190.798 28.7966C190.544 28.9937 190.353 29.2626 190.223 29.6033C190.097 29.944 190.033 30.3283 190.033 30.7563C190.033 31.19 190.098 31.58 190.228 31.9263C190.357 32.2726 190.549 32.5472 190.802 32.7499C191.058 32.9498 191.374 33.0498 191.748 33.0498Z" fill="white"/>
<path d="M197.318 34.0804C197.087 34.0804 196.889 33.9987 196.723 33.8354C196.556 33.6693 196.473 33.4693 196.473 33.2356C196.473 33.0047 196.556 32.8076 196.723 32.6443C196.889 32.4782 197.087 32.3951 197.318 32.3951C197.549 32.3951 197.747 32.4782 197.914 32.6443C198.08 32.8076 198.163 33.0047 198.163 33.2356C198.163 33.3905 198.123 33.5327 198.045 33.6622C197.969 33.7889 197.867 33.8903 197.74 33.9663C197.614 34.0423 197.473 34.0804 197.318 34.0804Z" fill="white"/>
<path d="M200.686 34.0804C200.456 34.0804 200.257 33.9987 200.091 33.8354C199.925 33.6693 199.842 33.4693 199.842 33.2356C199.842 33.0047 199.925 32.8076 200.091 32.6443C200.257 32.4782 200.456 32.3951 200.686 32.3951C200.917 32.3951 201.116 32.4782 201.282 32.6443C201.448 32.8076 201.531 33.0047 201.531 33.2356C201.531 33.3905 201.492 33.5327 201.413 33.6622C201.337 33.7889 201.236 33.8903 201.109 33.9663C200.982 34.0423 200.841 34.0804 200.686 34.0804Z" fill="white"/>
<path d="M204.055 34.0804C203.824 34.0804 203.625 33.9987 203.459 33.8354C203.293 33.6693 203.21 33.4693 203.21 33.2356C203.21 33.0047 203.293 32.8076 203.459 32.6443C203.625 32.4782 203.824 32.3951 204.055 32.3951C204.286 32.3951 204.484 32.4782 204.65 32.6443C204.816 32.8076 204.9 33.0047 204.9 33.2356C204.9 33.3905 204.86 33.5327 204.781 33.6622C204.705 33.7889 204.604 33.8903 204.477 33.9663C204.35 34.0423 204.21 34.0804 204.055 34.0804Z" fill="white"/>
</g>
<path d="M243.595 28.163H242.278C242.227 27.8814 242.133 27.6336 241.995 27.4196C241.857 27.2056 241.688 27.024 241.488 26.8747C241.288 26.7255 241.064 26.6129 240.816 26.5369C240.571 26.4608 240.311 26.4228 240.035 26.4228C239.536 26.4228 239.09 26.5481 238.696 26.7987C238.305 27.0493 237.995 27.4168 237.767 27.9011C237.541 28.3854 237.429 28.9767 237.429 29.675C237.429 30.379 237.541 30.9731 237.767 31.4574C237.995 31.9417 238.306 32.3078 238.7 32.5556C239.094 32.8034 239.538 32.9273 240.031 32.9273C240.304 32.9273 240.563 32.8906 240.808 32.8174C241.056 32.7414 241.279 32.6302 241.479 32.4838C241.679 32.3373 241.848 32.1585 241.986 31.9474C242.127 31.7334 242.224 31.4884 242.278 31.2124L243.595 31.2167C243.525 31.6419 243.388 32.0332 243.186 32.3908C242.986 32.7456 242.728 33.0526 242.413 33.3116C242.1 33.5678 241.743 33.7664 241.34 33.9071C240.937 34.0479 240.498 34.1183 240.022 34.1183C239.273 34.1183 238.606 33.9409 238.02 33.5861C237.434 33.2285 236.973 32.7175 236.635 32.053C236.3 31.3884 236.132 30.5958 236.132 29.675C236.132 28.7515 236.301 27.9588 236.639 27.2971C236.977 26.6326 237.439 26.1229 238.024 25.7681C238.61 25.4105 239.276 25.2317 240.022 25.2317C240.481 25.2317 240.909 25.2979 241.306 25.4303C241.706 25.5598 242.065 25.7513 242.383 26.0047C242.701 26.2553 242.965 26.5622 243.173 26.9254C243.381 27.2858 243.522 27.6984 243.595 28.163Z" fill="#190C66"/>
<path d="M247.788 34.131C247.18 34.131 246.649 33.9916 246.196 33.7129C245.743 33.4341 245.391 33.0441 245.14 32.5429C244.89 32.0417 244.764 31.456 244.764 30.7859C244.764 30.1129 244.89 29.5244 245.14 29.0204C245.391 28.5163 245.743 28.1249 246.196 27.8462C246.649 27.5674 247.18 27.428 247.788 27.428C248.397 27.428 248.927 27.5674 249.381 27.8462C249.834 28.1249 250.186 28.5163 250.437 29.0204C250.687 29.5244 250.813 30.1129 250.813 30.7859C250.813 31.456 250.687 32.0417 250.437 32.5429C250.186 33.0441 249.834 33.4341 249.381 33.7129C248.927 33.9916 248.397 34.131 247.788 34.131ZM247.793 33.0709C248.187 33.0709 248.514 32.9667 248.773 32.7583C249.032 32.5499 249.223 32.2726 249.347 31.9262C249.474 31.5799 249.537 31.1984 249.537 30.7816C249.537 30.3677 249.474 29.9876 249.347 29.6412C249.223 29.2921 249.032 29.0119 248.773 28.8007C248.514 28.5896 248.187 28.484 247.793 28.484C247.396 28.484 247.066 28.5896 246.804 28.8007C246.545 29.0119 246.352 29.2921 246.226 29.6412C246.102 29.9876 246.04 30.3677 246.04 30.7816C246.04 31.1984 246.102 31.5799 246.226 31.9262C246.352 32.2726 246.545 32.5499 246.804 32.7583C247.066 32.9667 247.396 33.0709 247.793 33.0709Z" fill="#190C66"/>
<path d="M252.222 34.0001V27.5125H253.434V28.5684H253.515C253.65 28.2108 253.871 27.9321 254.178 27.7321C254.485 27.5294 254.852 27.428 255.28 27.428C255.714 27.428 256.077 27.5294 256.37 27.7321C256.666 27.9349 256.884 28.2136 257.025 28.5684H257.092C257.247 28.2221 257.493 27.9461 257.831 27.7406C258.169 27.5322 258.572 27.428 259.039 27.428C259.628 27.428 260.108 27.6125 260.479 27.9813C260.854 28.3502 261.041 28.9063 261.041 29.6497V34.0001H259.778V29.768C259.778 29.3287 259.659 29.0105 259.419 28.8134C259.18 28.6163 258.894 28.5177 258.562 28.5177C258.151 28.5177 257.831 28.6445 257.603 28.8979C257.375 29.1485 257.261 29.4709 257.261 29.8651V34.0001H256.002V29.6877C256.002 29.3357 255.893 29.0527 255.673 28.8387C255.453 28.6247 255.168 28.5177 254.816 28.5177C254.576 28.5177 254.355 28.5811 254.152 28.7078C253.953 28.8317 253.791 29.0049 253.667 29.2273C253.546 29.4498 253.485 29.7074 253.485 30.0003V34.0001H252.222Z" fill="#190C66"/>
<path d="M262.734 34.0001V27.5125H263.997V34.0001H262.734ZM263.372 26.5115C263.152 26.5115 262.963 26.4383 262.806 26.2919C262.651 26.1426 262.573 25.9652 262.573 25.7597C262.573 25.5513 262.651 25.3739 262.806 25.2275C262.963 25.0783 263.152 25.0037 263.372 25.0037C263.591 25.0037 263.779 25.0783 263.933 25.2275C264.091 25.3739 264.17 25.5513 264.17 25.7597C264.17 25.9652 264.091 26.1426 263.933 26.2919C263.779 26.4383 263.591 26.5115 263.372 26.5115Z" fill="#190C66"/>
<path d="M266.959 30.1481V34.0001H265.696V27.5125H266.908V28.5684H266.988C267.137 28.2249 267.371 27.949 267.689 27.7406C268.01 27.5322 268.414 27.428 268.901 27.428C269.344 27.428 269.731 27.521 270.063 27.7068C270.395 27.8898 270.653 28.163 270.836 28.5262C271.019 28.8894 271.11 29.3385 271.11 29.8735V34.0001H269.848V30.0256C269.848 29.5554 269.725 29.1879 269.48 28.9232C269.235 28.6557 268.899 28.522 268.471 28.522C268.178 28.522 267.917 28.5853 267.689 28.712C267.464 28.8387 267.285 29.0246 267.153 29.2696C267.023 29.5117 266.959 29.8046 266.959 30.1481Z" fill="#190C66"/>
<path d="M275.524 36.568C275.009 36.568 274.565 36.5005 274.194 36.3653C273.825 36.2302 273.524 36.0514 273.29 35.8289C273.056 35.6065 272.882 35.3629 272.766 35.0982L273.852 34.6505C273.928 34.7744 274.029 34.9053 274.156 35.0433C274.285 35.1841 274.46 35.3038 274.679 35.4023C274.902 35.5009 275.188 35.5501 275.537 35.5501C276.016 35.5501 276.411 35.4333 276.724 35.1996C277.036 34.9687 277.193 34.5998 277.193 34.093V32.8174H277.112C277.036 32.9554 276.926 33.1089 276.783 33.2778C276.642 33.4468 276.448 33.5932 276.2 33.7171C275.952 33.841 275.63 33.9029 275.233 33.9029C274.72 33.9029 274.258 33.7832 273.847 33.5439C273.439 33.3017 273.115 32.9456 272.876 32.4753C272.639 32.0023 272.521 31.4208 272.521 30.7309C272.521 30.0411 272.638 29.4498 272.872 28.957C273.108 28.4642 273.432 28.0869 273.843 27.8251C274.254 27.5604 274.72 27.428 275.241 27.428C275.644 27.428 275.969 27.4956 276.217 27.6308C276.465 27.7631 276.658 27.918 276.796 28.0954C276.936 28.2728 277.045 28.4291 277.121 28.5642H277.214V27.5125H278.451V34.1437C278.451 34.7012 278.322 35.1588 278.063 35.5164C277.804 35.874 277.453 36.1386 277.011 36.3104C276.572 36.4822 276.076 36.568 275.524 36.568ZM275.512 32.8554C275.875 32.8554 276.182 32.771 276.432 32.602C276.686 32.4303 276.877 32.1853 277.007 31.8671C277.139 31.5461 277.205 31.1618 277.205 30.7141C277.205 30.2776 277.14 29.8933 277.011 29.561C276.881 29.2287 276.691 28.9697 276.441 28.7838C276.19 28.5952 275.88 28.5009 275.512 28.5009C275.131 28.5009 274.815 28.5994 274.561 28.7965C274.308 28.9908 274.116 29.2555 273.987 29.5906C273.86 29.9256 273.797 30.3001 273.797 30.7141C273.797 31.1392 273.861 31.5123 273.991 31.8333C274.121 32.1543 274.312 32.4049 274.565 32.5851C274.822 32.7653 275.137 32.8554 275.512 32.8554Z" fill="#190C66"/>
<path d="M288.112 27.6223C288.067 27.2225 287.881 26.9128 287.554 26.6931C287.228 26.4707 286.816 26.3595 286.321 26.3595C285.966 26.3595 285.659 26.4158 285.4 26.5284C285.141 26.6382 284.94 26.7903 284.796 26.9846C284.655 27.176 284.585 27.3943 284.585 27.6392C284.585 27.8448 284.633 28.0222 284.729 28.1714C284.827 28.3206 284.955 28.4459 285.113 28.5473C285.273 28.6459 285.445 28.7289 285.628 28.7965C285.811 28.8613 285.987 28.9148 286.156 28.957L287.001 29.1766C287.277 29.2442 287.56 29.3357 287.85 29.4512C288.14 29.5666 288.409 29.7187 288.657 29.9073C288.904 30.096 289.104 30.3297 289.256 30.6085C289.411 30.8872 289.489 31.2209 289.489 31.6095C289.489 32.0994 289.362 32.5345 289.109 32.9146C288.858 33.2947 288.493 33.5946 288.015 33.8142C287.539 34.0338 286.963 34.1437 286.287 34.1437C285.639 34.1437 285.079 34.0409 284.606 33.8353C284.133 33.6298 283.763 33.3384 283.495 32.961C283.228 32.5809 283.08 32.1304 283.052 31.6095H284.361C284.386 31.922 284.488 32.1825 284.665 32.3908C284.845 32.5964 285.075 32.7499 285.354 32.8512C285.635 32.9498 285.944 32.9991 286.279 32.9991C286.648 32.9991 286.976 32.9413 287.263 32.8259C287.553 32.7076 287.781 32.5443 287.947 32.3359C288.113 32.1248 288.196 31.8784 288.196 31.5968C288.196 31.3406 288.123 31.1308 287.977 30.9675C287.833 30.8042 287.637 30.669 287.389 30.562C287.145 30.455 286.867 30.3607 286.557 30.279L285.535 30.0003C284.843 29.8116 284.294 29.5342 283.888 29.1682C283.485 28.8021 283.284 28.3178 283.284 27.7153C283.284 27.2169 283.419 26.7818 283.69 26.4101C283.96 26.0385 284.326 25.7498 284.788 25.5443C285.25 25.3359 285.77 25.2317 286.35 25.2317C286.936 25.2317 287.453 25.3345 287.901 25.5401C288.351 25.7456 288.706 26.0286 288.965 26.389C289.224 26.7466 289.359 27.1577 289.37 27.6223H288.112Z" fill="#190C66"/>
<path d="M293.68 34.131C293.071 34.131 292.541 33.9916 292.087 33.7129C291.634 33.4341 291.282 33.0441 291.031 32.5429C290.781 32.0417 290.655 31.456 290.655 30.7859C290.655 30.1129 290.781 29.5244 291.031 29.0204C291.282 28.5163 291.634 28.1249 292.087 27.8462C292.541 27.5674 293.071 27.428 293.68 27.428C294.288 27.428 294.819 27.5674 295.272 27.8462C295.725 28.1249 296.077 28.5163 296.328 29.0204C296.578 29.5244 296.704 30.1129 296.704 30.7859C296.704 31.456 296.578 32.0417 296.328 32.5429C296.077 33.0441 295.725 33.4341 295.272 33.7129C294.819 33.9916 294.288 34.131 293.68 34.131ZM293.684 33.0709C294.078 33.0709 294.405 32.9667 294.664 32.7583C294.923 32.5499 295.114 32.2726 295.238 31.9262C295.365 31.5799 295.428 31.1984 295.428 30.7816C295.428 30.3677 295.365 29.9876 295.238 29.6412C295.114 29.2921 294.923 29.0119 294.664 28.8007C294.405 28.5896 294.078 28.484 293.684 28.484C293.287 28.484 292.957 28.5896 292.695 28.8007C292.436 29.0119 292.244 29.2921 292.117 29.6412C291.993 29.9876 291.931 30.3677 291.931 30.7816C291.931 31.1984 291.993 31.5799 292.117 31.9262C292.244 32.2726 292.436 32.5499 292.695 32.7583C292.957 32.9667 293.287 33.0709 293.684 33.0709Z" fill="#190C66"/>
<path d="M300.846 34.131C300.238 34.131 299.707 33.9916 299.254 33.7129C298.8 33.4341 298.448 33.0441 298.198 32.5429C297.947 32.0417 297.822 31.456 297.822 30.7859C297.822 30.1129 297.947 29.5244 298.198 29.0204C298.448 28.5163 298.8 28.1249 299.254 27.8462C299.707 27.5674 300.238 27.428 300.846 27.428C301.454 27.428 301.985 27.5674 302.438 27.8462C302.892 28.1249 303.244 28.5163 303.494 29.0204C303.745 29.5244 303.87 30.1129 303.87 30.7859C303.87 31.456 303.745 32.0417 303.494 32.5429C303.244 33.0441 302.892 33.4341 302.438 33.7129C301.985 33.9916 301.454 34.131 300.846 34.131ZM300.85 33.0709C301.245 33.0709 301.571 32.9667 301.83 32.7583C302.089 32.5499 302.281 32.2726 302.405 31.9262C302.531 31.5799 302.595 31.1984 302.595 30.7816C302.595 30.3677 302.531 29.9876 302.405 29.6412C302.281 29.2921 302.089 29.0119 301.83 28.8007C301.571 28.5896 301.245 28.484 300.85 28.484C300.453 28.484 300.124 28.5896 299.862 28.8007C299.603 29.0119 299.41 29.2921 299.283 29.6412C299.159 29.9876 299.097 30.3677 299.097 30.7816C299.097 31.1984 299.159 31.5799 299.283 31.9262C299.41 32.2726 299.603 32.5499 299.862 32.7583C300.124 32.9667 300.453 33.0709 300.85 33.0709Z" fill="#190C66"/>
<path d="M306.543 30.1481V34.0001H305.28V27.5125H306.492V28.5684H306.572C306.722 28.2249 306.955 27.949 307.273 27.7406C307.594 27.5322 307.998 27.428 308.486 27.428C308.928 27.428 309.315 27.521 309.647 27.7068C309.979 27.8898 310.237 28.163 310.42 28.5262C310.603 28.8894 310.695 29.3385 310.695 29.8735V34.0001H309.432V30.0256C309.432 29.5554 309.309 29.1879 309.064 28.9232C308.819 28.6557 308.483 28.522 308.055 28.522C307.762 28.522 307.502 28.5853 307.273 28.712C307.048 28.8387 306.869 29.0246 306.737 29.2696C306.608 29.5117 306.543 29.8046 306.543 30.1481Z" fill="#190C66"/>
<g opacity="0.7" filter="url(#filter1_f_1240_6389)">
<path d="M269 53H34.6423C28.7337 53 23.042 50.7743 18.7008 46.7661V46.7661C8.6228 37.4613 8.6228 21.5387 18.7008 12.2339V12.2339C23.042 8.22574 28.7337 6 34.6423 6H139.241" stroke="url(#paint3_linear_1240_6389)" stroke-width="2"/>
</g>
<defs>
<filter id="filter0_f_1240_6389" x="4" y="0" width="329" height="60" filterUnits="userSpaceOnUse" color-interpolation-filters="sRGB">
<feFlood flood-opacity="0" result="BackgroundImageFix"/>
<feBlend mode="normal" in="SourceGraphic" in2="BackgroundImageFix" result="shape"/>
<feGaussianBlur stdDeviation="3" result="effect1_foregroundBlur_1240_6389"/>
</filter>
<filter id="filter1_f_1240_6389" x="6.14233" y="1" width="266.858" height="57" filterUnits="userSpaceOnUse" color-interpolation-filters="sRGB">
<feFlood flood-opacity="0" result="BackgroundImageFix"/>
<feBlend mode="normal" in="SourceGraphic" in2="BackgroundImageFix" result="shape"/>
<feGaussianBlur stdDeviation="2" result="effect1_foregroundBlur_1240_6389"/>
</filter>
<linearGradient id="paint0_linear_1240_6389" x1="30.3688" y1="20.6049" x2="294.267" y2="131.188" gradientUnits="userSpaceOnUse">
<stop stop-color="#7739FC"/>
<stop offset="1" stop-color="#D0BAFF"/>
</linearGradient>
<linearGradient id="paint1_linear_1240_6389" x1="30.3688" y1="20.6049" x2="294.267" y2="131.188" gradientUnits="userSpaceOnUse">
<stop stop-color="#7739FC"/>
<stop offset="1" stop-color="#D0BAFF"/>
</linearGradient>
<linearGradient id="paint2_linear_1240_6389" x1="230.361" y1="22.1707" x2="324.917" y2="37.0198" gradientUnits="userSpaceOnUse">
<stop stop-color="#7739FC"/>
<stop offset="1" stop-color="#D0BAFF"/>
</linearGradient>
<linearGradient id="paint3_linear_1240_6389" x1="8.5" y1="40" x2="151" y2="30" gradientUnits="userSpaceOnUse">
<stop stop-color="white"/>
<stop offset="1" stop-color="white" stop-opacity="0"/>
</linearGradient>
</defs>
</svg>
