<svg width="24" height="24" viewBox="0 0 24 24" fill="none" xmlns="http://www.w3.org/2000/svg">
<circle opacity="0.5" cx="12" cy="12" r="12" fill="black"/>
<path d="M13.125 5.91553C13.125 6.17594 13.0355 6.39974 12.8564 6.58691C12.6774 6.77409 12.4577 6.86768 12.1973 6.86768C11.9368 6.86768 11.7131 6.77816 11.5259 6.59912C11.3468 6.42008 11.2573 6.19222 11.2573 5.91553C11.2573 5.65511 11.3468 5.43945 11.5259 5.26855C11.7131 5.08952 11.9368 5 12.1973 5C12.4495 5 12.6652 5.08952 12.8442 5.26855C13.0314 5.44759 13.125 5.66325 13.125 5.91553ZM10.1221 17.2192V16.8652C10.3988 16.8652 10.6226 16.8449 10.7935 16.8042C10.9644 16.7635 11.0946 16.6903 11.1841 16.5845C11.2817 16.4787 11.3468 16.3403 11.3794 16.1694C11.4119 15.9904 11.4282 15.7666 11.4282 15.498V10.9937C11.4282 10.8879 11.4201 10.7658 11.4038 10.6274C11.3957 10.481 11.3713 10.3426 11.3306 10.2124C11.2899 10.0822 11.2248 9.97233 11.1353 9.88281C11.0457 9.79329 10.9277 9.74854 10.7812 9.74854C10.6755 9.74854 10.5656 9.76481 10.4517 9.79736C10.3459 9.82178 10.236 9.85433 10.1221 9.89502L10 9.56543L12.5513 8.54004H12.9541V15.498C12.9541 15.7666 12.9704 15.9904 13.0029 16.1694C13.0355 16.3403 13.0965 16.4787 13.186 16.5845C13.2837 16.6903 13.4139 16.7635 13.5767 16.8042C13.7476 16.8449 13.9714 16.8652 14.248 16.8652V17.2192H10.1221Z" fill="white"/>
</svg>
