<svg width="13" height="17" viewBox="0 0 13 17" fill="none" xmlns="http://www.w3.org/2000/svg">
<path d="M1.75008 16.0999L11.2499 16.0999C11.7218 16.0999 12.0999 15.7218 12.1 15.25V15.25V5.45007C12.1 5.22411 12.0066 4.99856 11.8541 4.84602C11.854 4.84601 11.854 4.84599 11.854 4.84597L8.17086 1.14615L8.17069 1.14599C8.01814 0.99345 7.79245 0.9 7.5666 0.9H1.74997C1.27807 0.9 0.9 1.27807 0.9 1.74997V15.2499C0.9 15.7218 1.27808 16.0999 1.75008 16.0999ZM1.60013 1.74989C1.60013 1.6718 1.67205 1.59994 1.75008 1.59994L7.56679 1.59993C7.58399 1.59993 7.6039 1.60441 7.62324 1.6127C7.64299 1.62116 7.65676 1.63126 7.6629 1.63737C7.6629 1.63737 7.66291 1.63738 7.66291 1.63738L11.3554 5.32986C11.3825 5.37241 11.4001 5.41545 11.4001 5.44987L11.4 15.2498C11.4 15.3278 11.3281 15.3998 11.25 15.3998H1.75008C1.67205 15.3998 1.60013 15.3279 1.60013 15.2498V1.74989Z" fill="white" stroke="white" stroke-width="0.2"/>
<path d="M8.24997 5.59977L11.6998 5.59977L11.7012 5.49977C11.8505 5.49905 11.9499 5.38276 11.9498 5.2497H12.0498C12.0498 5.24967 12.0498 5.24964 12.0498 5.24961C12.0497 5.06122 11.8884 4.89975 11.6998 4.89975H8.24985C8.17182 4.89975 8.0999 4.82789 8.0999 4.7498V1.28315C8.0999 1.09458 7.93853 0.933203 7.74995 0.933203C7.56152 0.933203 7.4 1.09455 7.4 1.28315V4.7498C7.4 5.22169 7.77807 5.59977 8.24997 5.59977Z" fill="white" stroke="white" stroke-width="0.2"/>
</svg>
