<svg width="11" height="11" viewBox="0 0 11 11" fill="none" xmlns="http://www.w3.org/2000/svg">
<path d="M9.48152 8.35878C9.64555 8.35878 9.80286 8.29362 9.91885 8.17763C10.0348 8.06165 10.1 7.90433 10.1 7.7403V1.51848C10.1 1.35445 10.0348 1.19714 9.91885 1.08115C9.80286 0.965161 9.64555 0.9 9.48152 0.9H3.2597C3.09567 0.9 2.93835 0.965162 2.82237 1.08115C2.70638 1.19714 2.64122 1.35445 2.64122 1.51848C2.64122 1.68252 2.70638 1.83983 2.82237 1.95582C2.93835 2.07181 3.09567 2.13697 3.2597 2.13697H7.98882L1.0955 9.03029C1.03536 9.08666 0.987095 9.15449 0.953542 9.2298C0.919738 9.30566 0.901561 9.38756 0.900096 9.4706C0.898631 9.55365 0.913907 9.63614 0.945014 9.71315C0.97612 9.79016 1.02242 9.86012 1.08115 9.91885C1.13988 9.97758 1.20984 10.0239 1.28685 10.055C1.36386 10.0861 1.44635 10.1014 1.5294 10.0999C1.61244 10.0984 1.69434 10.0803 1.77021 10.0465C1.84551 10.0129 1.91334 9.96464 1.96971 9.9045L8.86303 3.01118V7.7403C8.86303 8.08173 9.14008 8.35878 9.48152 8.35878Z" fill="white" stroke="white" stroke-width="0.2"/>
</svg>
