<svg width="14" height="15" viewBox="0 0 14 15" fill="none" xmlns="http://www.w3.org/2000/svg">
<path d="M10.0617 3.99363C10.0617 5.68217 8.68813 7.05583 6.99949 7.05583C5.31083 7.05583 3.93717 5.68227 3.93729 3.99363H10.0617ZM10.0617 3.99363C10.0617 2.305 8.68803 0.931429 6.99949 0.931429M10.0617 3.99363L6.99949 0.931429M6.99949 0.931429C5.31095 0.931429 3.93729 2.30508 3.93729 3.99363L6.99949 0.931429ZM6.99949 1.7804C8.21989 1.7804 9.21264 2.77318 9.21264 3.99354C9.21264 5.21371 8.21985 6.20669 6.99949 6.20669C5.77933 6.20669 4.78634 5.2139 4.78634 3.99354C4.78634 2.77338 5.77913 1.7804 6.99949 1.7804Z" fill="white" stroke="white" stroke-width="0.137143"/>
<path d="M7 8.20438C3.65391 8.20438 0.931429 10.9265 0.931429 14.2729C0.931429 14.5074 1.12132 14.6976 1.35606 14.6976H12.6439C12.8784 14.6976 13.0686 14.5074 13.0686 14.2729C13.0685 10.9266 10.3463 8.20438 7 8.20438ZM12.2025 13.8486H1.79779C2.01446 11.1684 4.26511 9.05364 7 9.05364C9.73509 9.05364 11.9855 11.1683 12.2025 13.8486Z" fill="white" stroke="white" stroke-width="0.137143"/>
</svg>
