<svg width="91" height="36" viewBox="0 0 91 36" fill="none" xmlns="http://www.w3.org/2000/svg">
<rect x="0.670082" y="0.670082" width="89.6598" height="34.6598" rx="17.3299" fill="#191919" stroke="url(#paint0_linear_4084_1354)" stroke-width="1.34016"/>
<path d="M21.0592 22.6152H19.6032L22.8747 13.5243H24.4594L27.7309 22.6152H26.2749L23.7048 15.1756H23.6337L21.0592 22.6152ZM21.3033 19.0552H26.0263V20.2093H21.3033V19.0552ZM30.4153 13.5243V22.6152H29.0437V13.5243H30.4153ZM37.5986 22.7662C37.1665 22.7662 36.7759 22.6863 36.4267 22.5265C36.0775 22.3637 35.8008 22.1284 35.5966 21.8207C35.3954 21.5129 35.2948 21.1356 35.2948 20.6887C35.2948 20.304 35.3688 19.9874 35.5167 19.7388C35.6647 19.4902 35.8645 19.2934 36.116 19.1484C36.3675 19.0034 36.6487 18.8939 36.9594 18.82C37.2701 18.746 37.5868 18.6897 37.9093 18.6513C38.3177 18.6039 38.6491 18.5655 38.9036 18.5359C39.1581 18.5033 39.3431 18.4515 39.4585 18.3805C39.5739 18.3095 39.6316 18.1941 39.6316 18.0343V18.0032C39.6316 17.6155 39.5221 17.3152 39.3031 17.1021C39.0871 16.889 38.7645 16.7825 38.3354 16.7825C37.8886 16.7825 37.5364 16.8816 37.279 17.0799C37.0245 17.2752 36.8484 17.4927 36.7508 17.7324L35.5034 17.4483C35.6514 17.034 35.8674 16.6996 36.1515 16.4451C36.4386 16.1877 36.7685 16.0012 37.1414 15.8858C37.5142 15.7675 37.9064 15.7083 38.3177 15.7083C38.5899 15.7083 38.8785 15.7408 39.1833 15.8059C39.491 15.8681 39.7781 15.9835 40.0444 16.1522C40.3137 16.3208 40.5342 16.562 40.7058 16.8757C40.8775 17.1864 40.9633 17.5904 40.9633 18.0875V22.6152H39.6671V21.6831H39.6139C39.528 21.8547 39.3993 22.0234 39.2277 22.1891C39.056 22.3548 38.8356 22.4924 38.5663 22.6019C38.297 22.7114 37.9744 22.7662 37.5986 22.7662ZM37.8871 21.7008C38.2541 21.7008 38.5678 21.6283 38.8282 21.4833C39.0915 21.3383 39.2913 21.1489 39.4274 20.9151C39.5665 20.6784 39.6361 20.4254 39.6361 20.1561V19.2772C39.5887 19.3245 39.497 19.3689 39.3608 19.4103C39.2277 19.4488 39.0753 19.4828 38.9036 19.5124C38.732 19.5391 38.5648 19.5642 38.402 19.5879C38.2393 19.6086 38.1031 19.6264 37.9937 19.6412C37.7362 19.6737 37.5009 19.7285 37.2879 19.8054C37.0778 19.8823 36.9091 19.9933 36.7818 20.1383C36.6575 20.2804 36.5954 20.4698 36.5954 20.7065C36.5954 21.035 36.7167 21.2836 36.9594 21.4522C37.202 21.618 37.5113 21.7008 37.8871 21.7008ZM47.8403 17.4616L46.6373 17.6747C46.587 17.5208 46.5071 17.3743 46.3976 17.2353C46.2911 17.0962 46.1461 16.9822 45.9626 16.8935C45.7791 16.8047 45.5498 16.7603 45.2746 16.7603C44.8988 16.7603 44.5851 16.8446 44.3335 17.0133C44.082 17.179 43.9562 17.3936 43.9562 17.657C43.9562 17.8848 44.0406 18.0683 44.2093 18.2074C44.3779 18.3465 44.6502 18.4604 45.026 18.5492L46.1091 18.7978C46.7365 18.9428 47.204 19.1662 47.5118 19.468C47.8196 19.7699 47.9735 20.162 47.9735 20.6444C47.9735 21.0527 47.8551 21.4167 47.6183 21.7363C47.3846 22.053 47.0576 22.3016 46.6373 22.4821C46.2201 22.6626 45.7362 22.7528 45.1858 22.7528C44.4223 22.7528 43.7994 22.5901 43.317 22.2646C42.8347 21.9361 42.5387 21.47 42.4292 20.8663L43.7121 20.671C43.792 21.0054 43.9562 21.2584 44.2048 21.43C44.4534 21.5987 44.7774 21.6831 45.1769 21.6831C45.6119 21.6831 45.9597 21.5928 46.2201 21.4123C46.4805 21.2288 46.6107 21.0054 46.6107 20.742C46.6107 20.5289 46.5308 20.3499 46.371 20.2049C46.2142 20.0599 45.973 19.9504 45.6475 19.8764L44.4933 19.6234C43.8571 19.4784 43.3866 19.2476 43.0818 18.9309C42.7799 18.6143 42.629 18.2133 42.629 17.728C42.629 17.3255 42.7414 16.9734 42.9664 16.6715C43.1913 16.3697 43.502 16.1344 43.8985 15.9657C44.2951 15.7941 44.7493 15.7083 45.2613 15.7083C45.9981 15.7083 46.5782 15.8681 47.0013 16.1877C47.4245 16.5043 47.7042 16.929 47.8403 17.4616ZM54.5419 17.4616L53.339 17.6747C53.2887 17.5208 53.2088 17.3743 53.0993 17.2353C52.9928 17.0962 52.8478 16.9822 52.6643 16.8935C52.4808 16.8047 52.2515 16.7603 51.9763 16.7603C51.6004 16.7603 51.2867 16.8446 51.0352 17.0133C50.7837 17.179 50.6579 17.3936 50.6579 17.657C50.6579 17.8848 50.7422 18.0683 50.9109 18.2074C51.0796 18.3465 51.3518 18.4604 51.7277 18.5492L52.8108 18.7978C53.4381 18.9428 53.9057 19.1662 54.2135 19.468C54.5212 19.7699 54.6751 20.162 54.6751 20.6444C54.6751 21.0527 54.5567 21.4167 54.32 21.7363C54.0862 22.053 53.7592 22.3016 53.339 22.4821C52.9217 22.6626 52.4379 22.7528 51.8875 22.7528C51.124 22.7528 50.5011 22.5901 50.0187 22.2646C49.5363 21.9361 49.2404 21.47 49.1309 20.8663L50.4138 20.671C50.4937 21.0054 50.6579 21.2584 50.9065 21.43C51.1551 21.5987 51.4791 21.6831 51.8786 21.6831C52.3136 21.6831 52.6613 21.5928 52.9217 21.4123C53.1822 21.2288 53.3124 21.0054 53.3124 20.742C53.3124 20.5289 53.2325 20.3499 53.0727 20.2049C52.9158 20.0599 52.6746 19.9504 52.3491 19.8764L51.195 19.6234C50.5588 19.4784 50.0882 19.2476 49.7834 18.9309C49.4816 18.6143 49.3307 18.2133 49.3307 17.728C49.3307 17.3255 49.4431 16.9734 49.668 16.6715C49.8929 16.3697 50.2036 16.1344 50.6002 15.9657C50.9967 15.7941 51.451 15.7083 51.9629 15.7083C52.6998 15.7083 53.2798 15.8681 53.703 16.1877C54.1262 16.5043 54.4058 16.929 54.5419 17.4616ZM56.1344 22.6152V15.7971H57.4616V22.6152H56.1344ZM56.8047 14.745C56.5739 14.745 56.3756 14.6681 56.2099 14.5142C56.0471 14.3574 55.9657 14.1709 55.9657 13.9549C55.9657 13.7359 56.0471 13.5495 56.2099 13.3956C56.3756 13.2388 56.5739 13.1603 56.8047 13.1603C57.0355 13.1603 57.2323 13.2388 57.3951 13.3956C57.5608 13.5495 57.6436 13.7359 57.6436 13.9549C57.6436 14.1709 57.5608 14.3574 57.3951 14.5142C57.2323 14.6681 57.0355 14.745 56.8047 14.745ZM64.3564 17.4616L63.1535 17.6747C63.1031 17.5208 63.0232 17.3743 62.9138 17.2353C62.8072 17.0962 62.6622 16.9822 62.4787 16.8935C62.2953 16.8047 62.0659 16.7603 61.7907 16.7603C61.4149 16.7603 61.1012 16.8446 60.8497 17.0133C60.5981 17.179 60.4723 17.3936 60.4723 17.657C60.4723 17.8848 60.5567 18.0683 60.7254 18.2074C60.894 18.3465 61.1663 18.4604 61.5421 18.5492L62.6252 18.7978C63.2526 18.9428 63.7202 19.1662 64.0279 19.468C64.3357 19.7699 64.4896 20.162 64.4896 20.6444C64.4896 21.0527 64.3712 21.4167 64.1345 21.7363C63.9007 22.053 63.5737 22.3016 63.1535 22.4821C62.7362 22.6626 62.2524 22.7528 61.7019 22.7528C60.9384 22.7528 60.3155 22.5901 59.8331 22.2646C59.3508 21.9361 59.0549 21.47 58.9454 20.8663L60.2282 20.671C60.3081 21.0054 60.4723 21.2584 60.7209 21.43C60.9695 21.5987 61.2935 21.6831 61.693 21.6831C62.1281 21.6831 62.4758 21.5928 62.7362 21.4123C62.9966 21.2288 63.1268 21.0054 63.1268 20.742C63.1268 20.5289 63.0469 20.3499 62.8871 20.2049C62.7303 20.0599 62.4891 19.9504 62.1636 19.8764L61.0095 19.6234C60.3732 19.4784 59.9027 19.2476 59.5979 18.9309C59.296 18.6143 59.1451 18.2133 59.1451 17.728C59.1451 17.3255 59.2576 16.9734 59.4825 16.6715C59.7074 16.3697 60.0181 16.1344 60.4146 15.9657C60.8112 15.7941 61.2654 15.7083 61.7774 15.7083C62.5142 15.7083 63.0943 15.8681 63.5174 16.1877C63.9406 16.5043 64.2203 16.929 64.3564 17.4616ZM69.1316 15.7971V16.8624H65.4073V15.7971H69.1316ZM66.4061 14.1635H67.7333V20.6133C67.7333 20.8707 67.7718 21.0646 67.8487 21.1948C67.9257 21.322 68.0248 21.4093 68.1461 21.4567C68.2704 21.5011 68.4051 21.5233 68.5501 21.5233C68.6566 21.5233 68.7498 21.5159 68.8297 21.5011C68.9096 21.4863 68.9718 21.4744 69.0162 21.4656L69.2559 22.562C69.1789 22.5916 69.0694 22.6212 68.9274 22.6507C68.7853 22.6833 68.6078 22.7011 68.3947 22.704C68.0455 22.7099 67.72 22.6478 67.4181 22.5176C67.1163 22.3874 66.8722 22.1861 66.6857 21.9139C66.4993 21.6416 66.4061 21.2998 66.4061 20.8885V14.1635Z" fill="white"/>
<defs>
<linearGradient id="paint0_linear_4084_1354" x1="5.84718" y1="10.9537" x2="92.6723" y2="24.8794" gradientUnits="userSpaceOnUse">
<stop stop-color="#3013E4"/>
<stop offset="1" stop-color="#9665FF"/>
</linearGradient>
</defs>
</svg>
