<svg width="20" height="15" viewBox="0 0 20 15" fill="none" xmlns="http://www.w3.org/2000/svg">
<path d="M6.5 8.58133C3.42771 8.58133 0.931429 11.1546 0.931429 14.3138C0.931429 14.5353 1.10617 14.7185 1.32639 14.7185H11.6736C11.8936 14.7185 12.0686 14.5353 12.0686 14.3138C12.0685 11.1547 9.57248 8.58133 6.5 8.58133ZM11.2629 13.9094H1.73733C1.93776 11.3815 3.99907 9.3907 6.5 9.3907C9.00111 9.3907 11.0622 11.3815 11.2629 13.9094Z" fill="white" stroke="white" stroke-width="0.137143"/>
<path d="M16.0617 3.99363C16.0617 5.68217 14.6881 7.05583 12.9995 7.05583C11.3108 7.05583 9.93717 5.68227 9.93729 3.99363H16.0617ZM16.0617 3.99363C16.0617 2.305 14.688 0.931429 12.9995 0.931429M16.0617 3.99363L12.9995 0.931429M12.9995 0.931429C11.3109 0.931429 9.93729 2.30508 9.93729 3.99363L12.9995 0.931429ZM12.9995 1.7804C14.2199 1.7804 15.2126 2.77318 15.2126 3.99354C15.2126 5.21371 14.2199 6.20669 12.9995 6.20669C11.7793 6.20669 10.7863 5.2139 10.7863 3.99354C10.7863 2.77338 11.7791 1.7804 12.9995 1.7804Z" fill="white" stroke="white" stroke-width="0.137143"/>
<path d="M9.06857 4.7998C9.06857 6.21616 7.91643 7.36838 6.5 7.36838C5.08355 7.36838 3.93133 6.21624 3.93143 4.7998H9.06857ZM9.06857 4.7998C9.06857 3.38337 7.91636 2.23123 6.5 2.23123M9.06857 4.7998L6.5 2.23123M6.5 2.23123C5.08364 2.23123 3.93143 3.38344 3.93143 4.7998L6.5 2.23123ZM6.5 2.96282C7.51292 2.96282 8.33691 3.78684 8.33691 4.79973C8.33691 5.81245 7.51289 6.63664 6.5 6.63664C5.48728 6.63664 4.66309 5.81262 4.66309 4.79973C4.66309 3.78701 5.48711 2.96282 6.5 2.96282Z" fill="white" stroke="white" stroke-width="0.137143"/>
<path d="M7.5 14.4999H18.5C18 12.9999 15.6 9.39985 14 8.99985C12 8.49985 11 8.99988 9.5 9.99988C8.3 10.7999 7.66667 13.4999 7.5 14.4999Z" fill="black"/>
<path d="M13 8.20438C9.65391 8.20438 6.93143 10.9265 6.93143 14.2729C6.93143 14.5074 7.12132 14.6976 7.35606 14.6976H18.6439C18.8784 14.6976 19.0686 14.5074 19.0686 14.2729C19.0685 10.9266 16.3463 8.20438 13 8.20438ZM18.2025 13.8486H7.79779C8.01446 11.1684 10.2651 9.05364 13 9.05364C15.7351 9.05364 17.9855 11.1683 18.2025 13.8486Z" fill="white" stroke="white" stroke-width="0.137143"/>
</svg>
